<svg width="243" height="50" viewBox="0 0 243 50" fill="none" xmlns="http://www.w3.org/2000/svg">
<path d="M9.5 6.84375V49H0.5V0.96875L9.5 6.84375ZM30.8125 15.1875L16.125 31.9375L8.25 39.9062L4.96875 33.4062L11.2188 25.4688L20 15.1875H30.8125ZM21.4688 49L11.4688 33.375L17.6875 27.9375L31.8438 49H21.4688Z" fill="white"/>
<path d="M44.1875 15.1875L39.6562 31.3125L44.1875 49H35.1562L39.6562 31.3125L35.1562 15.1875H44.1875ZM34.5938 6.375C34.5938 5.0625 35.0521 3.97917 35.9688 3.125C36.8854 2.27083 38.1146 1.84375 39.6562 1.84375C41.1771 1.84375 42.3958 2.27083 43.3125 3.125C44.25 3.97917 44.7188 5.0625 44.7188 6.375C44.7188 7.6875 44.25 8.77083 43.3125 9.625C42.3958 10.4792 41.1771 10.9062 39.6562 10.9062C38.1146 10.9062 36.8854 10.4792 35.9688 9.625C35.0521 8.77083 34.5938 7.6875 34.5938 6.375Z" fill="white"/>
<path d="M60.4375 22.4062V49H51.4375V15.1875H59.875L60.4375 22.4062ZM59.125 30.9062H56.6875C56.6875 28.4062 57.0104 26.1562 57.6562 24.1562C58.3021 22.1354 59.2083 20.4167 60.375 19C61.5417 17.5625 62.9271 16.4688 64.5312 15.7188C66.1562 14.9479 67.9688 14.5625 69.9688 14.5625C71.5521 14.5625 73 14.7917 74.3125 15.25C75.625 15.7083 76.75 16.4375 77.6875 17.4375C78.6458 18.4375 79.375 19.7604 79.875 21.4062C80.3958 23.0521 80.6562 25.0625 80.6562 27.4375V49H71.5938V27.4062C71.5938 25.9062 71.3854 24.7396 70.9688 23.9062C70.5521 23.0729 69.9375 22.4896 69.125 22.1562C68.3333 21.8021 67.3542 21.625 66.1875 21.625C64.9792 21.625 63.9271 21.8646 63.0312 22.3438C62.1562 22.8229 61.4271 23.4896 60.8438 24.3438C60.2812 25.1771 59.8542 26.1562 59.5625 27.2812C59.2708 28.4062 59.125 29.6146 59.125 30.9062Z" fill="white"/>
<path d="M86.0625 32.4375V31.7812C86.0625 29.3021 86.4167 27.0208 87.125 24.9375C87.8333 22.8333 88.8646 21.0104 90.2188 19.4688C91.5729 17.9271 93.2396 16.7292 95.2188 15.875C97.1979 15 99.4688 14.5625 102.031 14.5625C104.594 14.5625 106.875 15 108.875 15.875C110.875 16.7292 112.552 17.9271 113.906 19.4688C115.281 21.0104 116.323 22.8333 117.031 24.9375C117.74 27.0208 118.094 29.3021 118.094 31.7812V32.4375C118.094 34.8958 117.74 37.1771 117.031 39.2812C116.323 41.3646 115.281 43.1875 113.906 44.75C112.552 46.2917 110.885 47.4896 108.906 48.3438C106.927 49.1979 104.656 49.625 102.094 49.625C99.5312 49.625 97.25 49.1979 95.25 48.3438C93.2708 47.4896 91.5938 46.2917 90.2188 44.75C88.8646 43.1875 87.8333 41.3646 87.125 39.2812C86.4167 37.1771 86.0625 34.8958 86.0625 32.4375ZM95.0625 31.7812V32.4375C95.0625 33.8542 95.1875 35.1771 95.4375 36.4062C95.6875 37.6354 96.0833 38.7188 96.625 39.6562C97.1875 40.5729 97.9167 41.2917 98.8125 41.8125C99.7083 42.3333 100.802 42.5938 102.094 42.5938C103.344 42.5938 104.417 42.3333 105.312 41.8125C106.208 41.2917 106.927 40.5729 107.469 39.6562C108.01 38.7188 108.406 37.6354 108.656 36.4062C108.927 35.1771 109.062 33.8542 109.062 32.4375V31.7812C109.062 30.4062 108.927 29.1146 108.656 27.9062C108.406 26.6771 108 25.5938 107.438 24.6562C106.896 23.6979 106.177 22.9479 105.281 22.4062C104.385 21.8646 103.302 21.5938 102.031 21.5938C100.76 21.5938 99.6771 21.8646 98.7812 22.4062C97.9062 22.9479 97.1875 23.6979 96.625 24.6562C96.0833 25.5938 95.6875 26.6771 95.4375 27.9062C95.1875 29.1146 95.0625 30.4062 95.0625 31.7812Z" fill="white"/>
<path d="M140.188 15.1875V21.5625H120.5V15.1875H140.188ZM125.375 6.84375H134.375V38.8125C134.375 39.7917 134.5 40.5417 134.75 41.0625C135.021 41.5833 135.417 41.9479 135.938 42.1562C136.458 42.3438 137.115 42.4375 137.906 42.4375C138.469 42.4375 138.969 42.4167 139.406 42.375C139.865 42.3125 140.25 42.25 140.562 42.1875L140.594 48.8125C139.823 49.0625 138.99 49.2604 138.094 49.4062C137.198 49.5521 136.208 49.625 135.125 49.625C133.146 49.625 131.417 49.3021 129.938 48.6562C128.479 47.9896 127.354 46.9271 126.562 45.4688C125.771 44.0104 125.375 42.0938 125.375 39.7188V6.84375Z" fill="white"/>
<path d="M160.875 49.625C158.25 49.625 155.896 49.2083 153.812 48.375C151.729 47.5208 149.958 46.3438 148.5 44.8438C147.062 43.3438 145.958 41.6042 145.188 39.625C144.417 37.625 144.031 35.5 144.031 33.25V32C144.031 29.4375 144.396 27.0938 145.125 24.9688C145.854 22.8438 146.896 21 148.25 19.4375C149.625 17.875 151.292 16.6771 153.25 15.8438C155.208 14.9896 157.417 14.5625 159.875 14.5625C162.271 14.5625 164.396 14.9583 166.25 15.75C168.104 16.5417 169.656 17.6667 170.906 19.125C172.177 20.5833 173.135 22.3333 173.781 24.375C174.427 26.3958 174.75 28.6458 174.75 31.125V34.875H147.875V28.875H165.906V28.1875C165.906 26.9375 165.677 25.8229 165.219 24.8438C164.781 23.8438 164.115 23.0521 163.219 22.4688C162.323 21.8854 161.177 21.5938 159.781 21.5938C158.594 21.5938 157.573 21.8542 156.719 22.375C155.865 22.8958 155.167 23.625 154.625 24.5625C154.104 25.5 153.708 26.6042 153.438 27.875C153.188 29.125 153.062 30.5 153.062 32V33.25C153.062 34.6042 153.25 35.8542 153.625 37C154.021 38.1458 154.573 39.1354 155.281 39.9688C156.01 40.8021 156.885 41.4479 157.906 41.9062C158.948 42.3646 160.125 42.5938 161.438 42.5938C163.062 42.5938 164.573 42.2812 165.969 41.6562C167.385 41.0104 168.604 40.0417 169.625 38.75L174 43.5C173.292 44.5208 172.323 45.5 171.094 46.4375C169.885 47.375 168.427 48.1458 166.719 48.75C165.01 49.3333 163.062 49.625 160.875 49.625Z" fill="white"/>
<path d="M188.875 6.375V49H179.875V0.96875L188.875 6.375ZM210.188 15.1875L195.5 31.9375L187.625 39.9062L184.344 33.4062L190.594 25.4688L199.375 15.1875H210.188ZM200.844 49L190.844 33.375L197.062 27.9375L211.219 49H200.844Z" fill="white"/>
<path d="M232.312 41.375V26.3125C232.312 25.2292 232.135 24.3021 231.781 23.5312C231.427 22.7396 230.875 22.125 230.125 21.6875C229.396 21.25 228.448 21.0312 227.281 21.0312C226.281 21.0312 225.417 21.2083 224.688 21.5625C223.958 21.8958 223.396 22.3854 223 23.0312C222.604 23.6562 222.406 24.3958 222.406 25.25H213.406C213.406 23.8125 213.74 22.4479 214.406 21.1562C215.073 19.8646 216.042 18.7292 217.312 17.75C218.583 16.75 220.094 15.9688 221.844 15.4062C223.615 14.8438 225.594 14.5625 227.781 14.5625C230.406 14.5625 232.74 15 234.781 15.875C236.823 16.75 238.427 18.0625 239.594 19.8125C240.781 21.5625 241.375 23.75 241.375 26.375V40.8438C241.375 42.6979 241.49 44.2188 241.719 45.4062C241.948 46.5729 242.281 47.5938 242.719 48.4688V49H233.625C233.188 48.0833 232.854 46.9375 232.625 45.5625C232.417 44.1667 232.312 42.7708 232.312 41.375ZM233.5 28.4062L233.562 33.5H228.531C227.344 33.5 226.312 33.6354 225.438 33.9062C224.562 34.1771 223.844 34.5625 223.281 35.0625C222.719 35.5417 222.302 36.1042 222.031 36.75C221.781 37.3958 221.656 38.1042 221.656 38.875C221.656 39.6458 221.833 40.3438 222.188 40.9688C222.542 41.5729 223.052 42.0521 223.719 42.4062C224.385 42.7396 225.167 42.9062 226.062 42.9062C227.417 42.9062 228.594 42.6354 229.594 42.0938C230.594 41.5521 231.365 40.8854 231.906 40.0938C232.469 39.3021 232.76 38.5521 232.781 37.8438L235.156 41.6562C234.823 42.5104 234.365 43.3958 233.781 44.3125C233.219 45.2292 232.5 46.0938 231.625 46.9062C230.75 47.6979 229.698 48.3542 228.469 48.875C227.24 49.375 225.781 49.625 224.094 49.625C221.948 49.625 220 49.1979 218.25 48.3438C216.521 47.4688 215.146 46.2708 214.125 44.75C213.125 43.2083 212.625 41.4583 212.625 39.5C212.625 37.7292 212.958 36.1562 213.625 34.7812C214.292 33.4062 215.271 32.25 216.562 31.3125C217.875 30.3542 219.51 29.6354 221.469 29.1562C223.427 28.6562 225.698 28.4062 228.281 28.4062H233.5Z" fill="white"/>
</svg>
